<svg xmlns="http://www.w3.org/2000/svg" viewBox="0 0 1200 430" role="img" aria-labelledby="title desc">
  <title id="title">بنر فروشگاه</title>
  <desc id="desc">تصویر جایگزین بنر فروشگاهی با لپ تاپ، مانیتور و نورهای رنگی.</desc>
  <defs>
    <linearGradient id="bg" x1="0" x2="1" y1="0" y2="1">
      <stop offset="0" stop-color="#09133b"/>
      <stop offset=".48" stop-color="#6813ca"/>
      <stop offset="1" stop-color="#e51762"/>
    </linearGradient>
    <linearGradient id="screen" x1="0" x2="1" y1="0" y2="1">
      <stop offset="0" stop-color="#0ec9ff"/>
      <stop offset=".48" stop-color="#a855f7"/>
      <stop offset="1" stop-color="#ff3d7f"/>
    </linearGradient>
    <filter id="glow" x="-30%" y="-30%" width="160%" height="160%">
      <feGaussianBlur stdDeviation="16" result="blur"/>
      <feColorMatrix in="blur" values="1 0 0 0 0.35 0 1 0 0 0.12 0 0 1 0 0.95 0 0 0 .8 0"/>
      <feMerge>
        <feMergeNode/>
        <feMergeNode in="SourceGraphic"/>
      </feMerge>
    </filter>
  </defs>
  <rect width="1200" height="430" rx="34" fill="url(#bg)"/>
  <circle cx="220" cy="98" r="126" fill="#ffffff" opacity=".06"/>
  <circle cx="1038" cy="330" r="164" fill="#ffffff" opacity=".08"/>
  <path d="M68 315 C242 230 372 356 536 262 S848 172 1138 244" fill="none" stroke="#35d4ff" stroke-width="3" opacity=".35"/>
  <path d="M84 354 C292 286 418 392 606 302 S890 224 1130 296" fill="none" stroke="#ffcf57" stroke-width="3" opacity=".35"/>
  <g transform="translate(630 76)" filter="url(#glow)">
    <rect x="0" y="0" width="330" height="205" rx="20" fill="#111827"/>
    <rect x="18" y="18" width="294" height="164" rx="12" fill="url(#screen)"/>
    <path d="M55 138 C126 50 190 194 266 62" fill="none" stroke="#fff" stroke-width="8" opacity=".55"/>
    <rect x="112" y="205" width="106" height="28" rx="8" fill="#0f172a"/>
    <rect x="70" y="232" width="188" height="18" rx="9" fill="#1f2937"/>
  </g>
  <g transform="translate(330 142)">
    <path d="M36 0 h265 a23 23 0 0 1 23 23 v158 h-311 v-168 a13 13 0 0 1 13-13z" fill="#111827"/>
    <rect x="58" y="24" width="220" height="126" rx="10" fill="url(#screen)"/>
    <path d="M0 187 h364 l-42 44 h-282z" fill="#334155"/>
    <path d="M78 198 h210 l-16 17 h-178z" fill="#0f172a" opacity=".8"/>
  </g>
  <g transform="translate(914 145)">
    <rect x="0" y="0" width="118" height="168" rx="20" fill="#151a2f"/>
    <rect x="18" y="22" width="82" height="86" rx="12" fill="url(#screen)"/>
    <rect x="25" y="122" width="68" height="12" rx="6" fill="#475569"/>
    <rect x="25" y="143" width="48" height="9" rx="5" fill="#64748b"/>
  </g>
  <g fill="#fff" opacity=".92">
    <rect x="78" y="84" width="220" height="22" rx="11"/>
    <rect x="78" y="124" width="328" height="20" rx="10" opacity=".82"/>
    <rect x="78" y="164" width="258" height="20" rx="10" opacity=".7"/>
    <rect x="78" y="308" width="180" height="52" rx="18" opacity=".95"/>
  </g>
</svg>
